<svg xmlns="http://www.w3.org/2000/svg" xmlns:xlink="http://www.w3.org/1999/xlink" contentStyleType="text/css" height="822px" preserveAspectRatio="none" style="width:1051px;height:822px;background:#FFFFFF;" version="1.1" viewBox="0 0 1051 822" width="1051px" zoomAndPan="magnify"><defs/><g><!--cluster com--><g id="cluster_com"><path d="M8.5,6.0137 L38.2861,6.0137 A3.75,3.75 0 0 1 40.7861,8.5137 L47.7861,30.6348 L1041.5,30.6348 A2.5,2.5 0 0 1 1044,33.1348 L1044,812.5137 A2.5,2.5 0 0 1 1041.5,815.0137 L8.5,815.0137 A2.5,2.5 0 0 1 6,812.5137 L6,8.5137 A2.5,2.5 0 0 1 8.5,6.0137 " fill="none" style="stroke:#000000;stroke-width:1.5;"/><line style="stroke:#000000;stroke-width:1.5;" x1="6" x2="47.7861" y1="30.6348" y2="30.6348"/><text fill="#000000" font-family="sans-serif" font-size="14" font-weight="bold" lengthAdjust="spacing" textLength="28.7861" x="10" y="23.1211">com</text></g><!--cluster ut5--><g id="cluster_ut5"><path d="M32.5,51.0137 L54.5,51.0137 A3.75,3.75 0 0 1 57,53.5137 L64,75.6348 L1017.5,75.6348 A2.5,2.5 0 0 1 1020,78.1348 L1020,788.5137 A2.5,2.5 0 0 1 1017.5,791.0137 L32.5,791.0137 A2.5,2.5 0 0 1 30,788.5137 L30,53.5137 A2.5,2.5 0 0 1 32.5,51.0137 " fill="none" style="stroke:#000000;stroke-width:1.5;"/><line style="stroke:#000000;stroke-width:1.5;" x1="30" x2="64" y1="75.6348" y2="75.6348"/><text fill="#000000" font-family="sans-serif" font-size="14" font-weight="bold" lengthAdjust="spacing" textLength="21" x="34" y="68.1211">ut5</text></g><!--cluster ejerc--><g id="cluster_ejerc"><path d="M56.5,96.0137 L90.1963,96.0137 A3.75,3.75 0 0 1 92.6963,98.5137 L99.6963,120.6348 L993.5,120.6348 A2.5,2.5 0 0 1 996,123.1348 L996,764.5137 A2.5,2.5 0 0 1 993.5,767.0137 L56.5,767.0137 A2.5,2.5 0 0 1 54,764.5137 L54,98.5137 A2.5,2.5 0 0 1 56.5,96.0137 " fill="none" style="stroke:#000000;stroke-width:1.5;"/><line style="stroke:#000000;stroke-width:1.5;" x1="54" x2="99.6963" y1="120.6348" y2="120.6348"/><text fill="#000000" font-family="sans-serif" font-size="14" font-weight="bold" lengthAdjust="spacing" textLength="32.6963" x="58" y="113.1211">ejerc</text></g><!--cluster utils--><g id="cluster_utils"><path d="M730.5,189.0137 L760.2793,189.0137 A3.75,3.75 0 0 1 762.7793,191.5137 L769.7793,213.6348 L969.5,213.6348 A2.5,2.5 0 0 1 972,216.1348 L972,306.5137 A2.5,2.5 0 0 1 969.5,309.0137 L730.5,309.0137 A2.5,2.5 0 0 1 728,306.5137 L728,191.5137 A2.5,2.5 0 0 1 730.5,189.0137 " fill="none" style="stroke:#000000;stroke-width:1.5;"/><line style="stroke:#000000;stroke-width:1.5;" x1="728" x2="769.7793" y1="213.6348" y2="213.6348"/><text fill="#000000" font-family="sans-serif" font-size="14" font-weight="bold" lengthAdjust="spacing" textLength="28.7793" x="732" y="206.1211">utils</text></g><!--class Vehiculo--><g id="elem_Vehiculo"><rect
        fill="#F1F1F1" height="252.832" id="Vehiculo" rx="2.5" ry="2.5" style="stroke:#181818;stroke-width:0.5;" width="226.7646" x="482.5" y="133.0137"/><ellipse cx="564.7808" cy="149.0137" fill="#A9DCDF" rx="11" ry="11" style="stroke:#181818;stroke-width:1.0;"/><path d="M566.9683,150.7793 L562.8276,150.7793 L562.4058,151.8105 L562.8276,151.8105 Q563.437,151.8105 563.7026,152.0449 Q563.9683,152.2793 563.9683,152.6699 Q563.9683,153.0449 563.7026,153.2793 Q563.437,153.5137 562.8276,153.5137 L560.5308,153.5137 Q559.9214,153.5137 559.6714,153.2793 Q559.4058,153.0449 559.4058,152.6543 Q559.4058,152.2793 559.687,152.0449 Q559.9526,151.7949 560.5776,151.8105 L563.2495,145.1543 L562.1401,145.1543 Q561.5308,145.1543 561.2651,144.9199 Q560.9995,144.6855 560.9995,144.2949 Q560.9995,143.9199 561.2651,143.6855 Q561.5308,143.4512 562.1401,143.4512 L565.812,143.4512 L569.2026,151.8105 Q569.7964,151.8105 569.9839,151.9512 Q570.3745,152.2168 570.3745,152.6699 Q570.3745,153.0449 570.1089,153.2793 Q569.8589,153.5137 569.2495,153.5137 L566.9526,153.5137 Q566.3433,153.5137 566.0776,153.2793 Q565.812,153.0449 565.812,152.6543 Q565.812,152.2793 566.0776,152.0449 Q566.3433,151.8105 566.9526,151.8105 L567.3745,151.8105 L566.9683,150.7793 Z M566.2495,149.0762 L564.8901,145.7012 L563.5151,149.0762 L566.2495,149.0762 Z " fill="#000000"/><text fill="#000000" font-family="sans-serif" font-size="14" font-style="italic" lengthAdjust="spacing" textLength="53.7031" x="585.2808" y="154.8105">Vehiculo</text><line style="stroke:#181818;stroke-width:0.5;" x1="483.5" x2="708.2646" y1="165.0137" y2="165.0137"/><rect fill="none" height="6" style="stroke:#C82930;stroke-width:1.0;" width="6" x="490.5" y="176.8242"/><text fill="#000000" font-family="sans-serif" font-size="14" lengthAdjust="spacing" textLength="97.2549" x="502.5" y="184.1211">String matricula</text><rect fill="none" height="6" style="stroke:#C82930;stroke-width:1.0;" width="6" x="490.5" y="195.4453"/><text fill="#000000" font-family="sans-serif" font-size="14" lengthAdjust="spacing" textLength="79.3584" x="502.5" y="202.7422">String marca</text><rect fill="none" height="6" style="stroke:#C82930;stroke-width:1.0;" width="6" x="490.5" y="214.0664"/><text fill="#000000" font-family="sans-serif" font-size="14" lengthAdjust="spacing" textLength="86.3789" x="502.5" y="221.3633">String modelo</text><rect fill="none" height="6" style="stroke:#C82930;stroke-width:1.0;" width="6" x="490.5" y="232.6875"/><text fill="#000000" font-family="sans-serif" font-size="14" lengthAdjust="spacing" textLength="117.5098" x="502.5" y="239.9844">int anioFabricacion</text><rect fill="none" height="6" style="stroke:#C82930;stroke-width:1.0;" width="6" x="490.5" y="251.3086"/><text fill="#000000" font-family="sans-serif" font-size="14" lengthAdjust="spacing" textLength="82.4688" x="502.5" y="258.6055">int kilometros</text><rect fill="none" height="6" style="stroke:#C82930;stroke-width:1.0;" width="6" x="490.5" y="269.9297"/><text fill="#000000" font-family="sans-serif" font-size="14" lengthAdjust="spacing" textLength="84.0615" x="502.5" y="277.2266">double precio</text><rect fill="none" height="6" style="stroke:#C82930;stroke-width:1.0;" width="6" x="490.5" y="288.5508"/><text fill="#000000" font-family="sans-serif" font-size="14" lengthAdjust="spacing" textLength="89.5098" x="502.5" y="295.8477">Estado estado</text><rect fill="none" height="6" style="stroke:#C82930;stroke-width:1.0;" width="6" x="490.5" y="307.1719"/><text fill="#000000" font-family="sans-serif" font-size="14" lengthAdjust="spacing" textLength="122.1855" x="502.5" y="314.4688">Persona propietario</text><line style="stroke:#181818;stroke-width:0.5;" x1="483.5" x2="708.2646" y1="321.9824" y2="321.9824"/><ellipse cx="493.5" cy="336.793" fill="#84BE84" rx="3" ry="3" style="stroke:#038048;stroke-width:1.0;"/><text fill="#000000" font-family="sans-serif" font-size="14" lengthAdjust="spacing" textLength="82.4824" x="502.5" y="341.0898">int getAnios()</text><ellipse cx="493.5" cy="355.4141" fill="#84BE84" rx="3" ry="3" style="stroke:#038048;stroke-width:1.0;"/><text fill="#000000" font-family="sans-serif" font-size="14" lengthAdjust="spacing" textLength="200.7646" x="502.5" y="359.7109">abstract double calcularRiesgo()</text><ellipse cx="493.5" cy="374.0352" fill="#84BE84" rx="3" ry="3" style="stroke:#038048;stroke-width:1.0;"/><text fill="#000000" font-family="sans-serif" font-size="14" lengthAdjust="spacing" textLength="185.2061" x="502.5" y="378.332">double calcularDepreciacion()</text></g><!--class Persona--><g id="elem_Persona"><rect codeLine="2" fill="#F1F1F1" height="159.7266" id="Persona" rx="2.5" ry="2.5" style="stroke:#181818;stroke-width:0.5;" width="204.958" x="156.5" y="179.5137"/><ellipse cx="228.6567" cy="195.5137" fill="#ADD1B2" rx="11" ry="11" style="stroke:#181818;stroke-width:1.0;"/><path d="M231.4224,191.3887 Q231.5786,191.1699 231.7661,191.0605 Q231.9536,190.9512 232.1724,190.9512 Q232.5474,190.9512 232.7817,191.2168 Q233.0161,191.4668 233.0161,192.0762 L233.0161,193.5293 Q233.0161,194.1387 232.7817,194.4043 Q232.5474,194.6699 232.1724,194.6699 Q231.8286,194.6699 231.6255,194.4668 Q231.4224,194.2793 231.313,193.7637 Q231.2661,193.4043 231.0786,193.2168 Q230.7505,192.8418 230.1411,192.623 Q229.5317,192.4043 228.9067,192.4043 Q228.1411,192.4043 227.5005,192.7324 Q226.8755,193.0605 226.3755,193.8105 Q225.8911,194.5605 225.8911,195.5918 L225.8911,196.6855 Q225.8911,197.9199 226.7817,198.748 Q227.6724,199.5605 229.2661,199.5605 Q230.2036,199.5605 230.8599,199.3105 Q231.2505,199.1543 231.6724,198.7168 Q231.938,198.4512 232.0786,198.373 Q232.2349,198.2949 232.438,198.2949 Q232.7661,198.2949 233.0161,198.5605 Q233.2817,198.8105 233.2817,199.1543 Q233.2817,199.498 232.938,199.9043 Q232.438,200.4824 231.6411,200.8105 Q230.563,201.2637 229.2661,201.2637 Q227.7505,201.2637 226.5474,200.6387 Q225.563,200.1387 224.8755,199.0762 Q224.188,197.998 224.188,196.7168 L224.188,195.5605 Q224.188,194.2324 224.7974,193.0918 Q225.4224,191.9355 226.5161,191.3262 Q227.6099,190.7012 228.8442,190.7012 Q229.5786,190.7012 230.2192,190.873 Q230.8755,191.0293 231.4224,191.3887 Z " fill="#000000"/><text fill="#000000" font-family="sans-serif" font-size="14" lengthAdjust="spacing" textLength="52.1445" x="249.1567" y="201.3105">Persona</text><line style="stroke:#181818;stroke-width:0.5;" x1="157.5" x2="360.458" y1="211.5137" y2="211.5137"/><rect fill="none" height="6" style="stroke:#C82930;stroke-width:1.0;" width="6" x="164.5" y="223.3242"/><text fill="#000000" font-family="sans-serif" font-size="14" lengthAdjust="spacing" textLength="147.8477" x="176.5" y="230.6211">String nombreCompleto</text><rect fill="none" height="6" style="stroke:#C82930;stroke-width:1.0;" width="6" x="164.5" y="241.9453"/><text fill="#000000" font-family="sans-serif" font-size="14" lengthAdjust="spacing" textLength="59.1445" x="176.5" y="249.2422">String dni</text><rect fill="none" height="6" style="stroke:#C82930;stroke-width:1.0;" width="6" x="164.5" y="260.5664"/><text fill="#000000" font-family="sans-serif" font-size="14" lengthAdjust="spacing" textLength="87.165" x="176.5" y="267.8633">int anioCarnet</text><rect fill="none" height="6" style="stroke:#C82930;stroke-width:1.0;" width="6" x="164.5" y="279.1875"/><text fill="#000000" font-family="sans-serif" font-size="14" lengthAdjust="spacing" textLength="115.1719" x="176.5" y="286.4844">int anioNacimiento</text><line style="stroke:#181818;stroke-width:0.5;" x1="157.5" x2="360.458" y1="293.998" y2="293.998"/><ellipse cx="167.5" cy="308.8086" fill="#84BE84" rx="3" ry="3" style="stroke:#038048;stroke-width:1.0;"/><text fill="#000000" font-family="sans-serif" font-size="14" lengthAdjust="spacing" textLength="178.958" x="176.5" y="313.1055">String getNombreCompleto()</text><ellipse cx="167.5" cy="327.4297" fill="#84BE84" rx="3" ry="3" style="stroke:#038048;stroke-width:1.0;"/><text fill="#000000" font-family="sans-serif" font-size="14" lengthAdjust="spacing" textLength="90.2549" x="176.5" y="331.7266">String getDni()</text></g><!--class Coche--><g id="elem_Coche"><rect codeLine="2" fill="#F1F1F1" height="141.1055" id="Coche" rx="2.5" ry="2.5" style="stroke:#181818;stroke-width:0.5;" width="209.6406" x="240" y="446.0137"/><ellipse cx="320.3359" cy="462.0137" fill="#A9DCDF" rx="11" ry="11" style="stroke:#181818;stroke-width:1.0;"/><path d="M322.5234,463.7793 L318.3828,463.7793 L317.9609,464.8105 L318.3828,464.8105 Q318.9922,464.8105 319.2578,465.0449 Q319.5234,465.2793 319.5234,465.6699 Q319.5234,466.0449 319.2578,466.2793 Q318.9922,466.5137 318.3828,466.5137 L316.0859,466.5137 Q315.4766,466.5137 315.2266,466.2793 Q314.9609,466.0449 314.9609,465.6543 Q314.9609,465.2793 315.2422,465.0449 Q315.5078,464.7949 316.1328,464.8105 L318.8047,458.1543 L317.6953,458.1543 Q317.0859,458.1543 316.8203,457.9199 Q316.5547,457.6855 316.5547,457.2949 Q316.5547,456.9199 316.8203,456.6855 Q317.0859,456.4512 317.6953,456.4512 L321.3672,456.4512 L324.7578,464.8105 Q325.3516,464.8105 325.5391,464.9512 Q325.9297,465.2168 325.9297,465.6699 Q325.9297,466.0449 325.6641,466.2793 Q325.4141,466.5137 324.8047,466.5137 L322.5078,466.5137 Q321.8984,466.5137 321.6328,466.2793 Q321.3672,466.0449 321.3672,465.6543 Q321.3672,465.2793 321.6328,465.0449 Q321.8984,464.8105 322.5078,464.8105 L322.9297,464.8105 L322.5234,463.7793 Z M321.8047,462.0762 L320.4453,458.7012 L319.0703,462.0762 L321.8047,462.0762 Z " fill="#000000"/><text fill="#000000" font-family="sans-serif" font-size="14" font-style="italic" lengthAdjust="spacing" textLength="40.4688" x="340.8359" y="467.8105">Coche</text><line style="stroke:#181818;stroke-width:0.5;" x1="241" x2="448.6406" y1="478.0137" y2="478.0137"/><rect fill="none" height="6" style="stroke:#C82930;stroke-width:1.0;" width="6" x="248" y="489.8242"/><text fill="#000000" font-family="sans-serif" font-size="14" lengthAdjust="spacing" textLength="65.3721" x="260" y="497.1211">int puertas</text><rect fill="none" height="6" style="stroke:#C82930;stroke-width:1.0;" width="6" x="248" y="508.4453"/><text fill="#000000" font-family="sans-serif" font-size="14" lengthAdjust="spacing" textLength="183.6406" x="260" y="515.7422">TipoCombustible combustible</text><rect fill="none" height="6" style="stroke:#C82930;stroke-width:1.0;" width="6" x="248" y="527.0664"/><text fill="#000000" font-family="sans-serif" font-size="14" lengthAdjust="spacing" textLength="73.1445" x="260" y="534.3633">int maletero</text><rect fill="none" height="6" style="stroke:#C82930;stroke-width:1.0;" width="6" x="248" y="545.6875"/><text fill="#000000" font-family="sans-serif" font-size="14" lengthAdjust="spacing" textLength="106.5928" x="260" y="552.9844">Traccion traccion</text><line style="stroke:#181818;stroke-width:0.5;" x1="241" x2="448.6406" y1="560.498" y2="560.498"/><ellipse cx="251" cy="575.3086" fill="#84BE84" rx="3" ry="3" style="stroke:#038048;stroke-width:1.0;"/><text fill="#000000" font-family="sans-serif" font-size="14" lengthAdjust="spacing" textLength="147.0752" x="260" y="579.6055">double calcularRiesgo()</text></g><!--class Sedan--><g id="elem_Sedan"><rect codeLine="2" fill="#F1F1F1" height="85.2422" id="Sedan" rx="2.5" ry="2.5" style="stroke:#181818;stroke-width:0.5;" width="163.7578" x="70" y="656.5137"/><ellipse cx="127.3877" cy="672.5137" fill="#ADD1B2" rx="11" ry="11" style="stroke:#181818;stroke-width:1.0;"/><path d="M130.1533,668.3887 Q130.3096,668.1699 130.4971,668.0605 Q130.6846,667.9512 130.9033,667.9512 Q131.2783,667.9512 131.5127,668.2168 Q131.7471,668.4668 131.7471,669.0762 L131.7471,670.5293 Q131.7471,671.1387 131.5127,671.4043 Q131.2783,671.6699 130.9033,671.6699 Q130.5596,671.6699 130.3564,671.4668 Q130.1533,671.2793 130.0439,670.7637 Q129.9971,670.4043 129.8096,670.2168 Q129.4814,669.8418 128.8721,669.623 Q128.2627,669.4043 127.6377,669.4043 Q126.8721,669.4043 126.2314,669.7324 Q125.6064,670.0605 125.1064,670.8105 Q124.6221,671.5605 124.6221,672.5918 L124.6221,673.6855 Q124.6221,674.9199 125.5127,675.748 Q126.4033,676.5605 127.9971,676.5605 Q128.9346,676.5605 129.5908,676.3105 Q129.9814,676.1543 130.4033,675.7168 Q130.6689,675.4512 130.8096,675.373 Q130.9658,675.2949 131.1689,675.2949 Q131.4971,675.2949 131.7471,675.5605 Q132.0127,675.8105 132.0127,676.1543 Q132.0127,676.498 131.6689,676.9043 Q131.1689,677.4824 130.3721,677.8105 Q129.2939,678.2637 127.9971,678.2637 Q126.4814,678.2637 125.2783,677.6387 Q124.2939,677.1387 123.6064,676.0762 Q122.9189,674.998 122.9189,673.7168 L122.9189,672.5605 Q122.9189,671.2324 123.5283,670.0918 Q124.1533,668.9355 125.2471,668.3262 Q126.3408,667.7012 127.5752,667.7012 Q128.3096,667.7012 128.9502,667.873 Q129.6064,668.0293 130.1533,668.3887 Z " fill="#000000"/><text fill="#000000" font-family="sans-serif" font-size="14" lengthAdjust="spacing" textLength="40.4824" x="147.8877" y="678.3105">Sedan</text><line style="stroke:#181818;stroke-width:0.5;" x1="71" x2="232.7578" y1="688.5137" y2="688.5137"/><rect fill="none" height="6" style="stroke:#C82930;stroke-width:1.0;" width="6" x="78" y="700.3242"/><text fill="#000000" font-family="sans-serif" font-size="14" lengthAdjust="spacing" textLength="137.7578" x="90" y="707.6211">double espacioInterior</text><rect fill="none" height="6" style="stroke:#C82930;stroke-width:1.0;" width="6" x="78" y="718.9453"/><text fill="#000000" font-family="sans-serif" font-size="14" lengthAdjust="spacing" textLength="123.7168" x="90" y="726.2422">NivelConfort confort</text><line style="stroke:#181818;stroke-width:0.5;" x1="71" x2="232.7578" y1="733.7559" y2="733.7559"/></g><!--class SUV--><g id="elem_SUV"><rect codeLine="2" fill="#F1F1F1" height="85.2422" id="SUV" rx="2.5" ry="2.5" style="stroke:#181818;stroke-width:0.5;" width="138.082" x="269" y="656.5137"/><ellipse cx="319.3979" cy="672.5137" fill="#ADD1B2" rx="11" ry="11" style="stroke:#181818;stroke-width:1.0;"/><path d="M322.1636,668.3887 Q322.3198,668.1699 322.5073,668.0605 Q322.6948,667.9512 322.9136,667.9512 Q323.2886,667.9512 323.5229,668.2168 Q323.7573,668.4668 323.7573,669.0762 L323.7573,670.5293 Q323.7573,671.1387 323.5229,671.4043 Q323.2886,671.6699 322.9136,671.6699 Q322.5698,671.6699 322.3667,671.4668 Q322.1636,671.2793 322.0542,670.7637 Q322.0073,670.4043 321.8198,670.2168 Q321.4917,669.8418 320.8823,669.623 Q320.2729,669.4043 319.6479,669.4043 Q318.8823,669.4043 318.2417,669.7324 Q317.6167,670.0605 317.1167,670.8105 Q316.6323,671.5605 316.6323,672.5918 L316.6323,673.6855 Q316.6323,674.9199 317.5229,675.748 Q318.4136,676.5605 320.0073,676.5605 Q320.9448,676.5605 321.6011,676.3105 Q321.9917,676.1543 322.4136,675.7168 Q322.6792,675.4512 322.8198,675.373 Q322.9761,675.2949 323.1792,675.2949 Q323.5073,675.2949 323.7573,675.5605 Q324.0229,675.8105 324.0229,676.1543 Q324.0229,676.498 323.6792,676.9043 Q323.1792,677.4824 322.3823,677.8105 Q321.3042,678.2637 320.0073,678.2637 Q318.4917,678.2637 317.2886,677.6387 Q316.3042,677.1387 315.6167,676.0762 Q314.9292,674.998 314.9292,673.7168 L314.9292,672.5605 Q314.9292,671.2324 315.5386,670.0918 Q316.1636,668.9355 317.2573,668.3262 Q318.3511,667.7012 319.5854,667.7012 Q320.3198,667.7012 320.9604,667.873 Q321.6167,668.0293 322.1636,668.3887 Z " fill="#000000"/><text fill="#000000" font-family="sans-serif" font-size="14" lengthAdjust="spacing" textLength="28.7861" x="339.8979" y="678.3105">SUV</text><line style="stroke:#181818;stroke-width:0.5;" x1="270" x2="406.082" y1="688.5137" y2="688.5137"/><rect fill="none" height="6" style="stroke:#C82930;stroke-width:1.0;" width="6" x="277" y="700.3242"/><text fill="#000000" font-family="sans-serif" font-size="14" lengthAdjust="spacing" textLength="102.751" x="289" y="707.6211">boolean offRoad</text><rect fill="none" height="6" style="stroke:#C82930;stroke-width:1.0;" width="6" x="277" y="718.9453"/><text fill="#000000" font-family="sans-serif" font-size="14" lengthAdjust="spacing" textLength="112.082" x="289" y="726.2422">double alturaLibre</text><line style="stroke:#181818;stroke-width:0.5;" x1="270" x2="406.082" y1="733.7559" y2="733.7559"/></g><!--class Deportivo--><g id="elem_Deportivo"><rect codeLine="2" fill="#F1F1F1" height="103.8633" id="Deportivo" rx="2.5" ry="2.5" style="stroke:#181818;stroke-width:0.5;" width="145.8613" x="442" y="647.0137"/><ellipse cx="481.275" cy="663.0137" fill="#ADD1B2" rx="11" ry="11" style="stroke:#181818;stroke-width:1.0;"/><path d="M484.0406,658.8887 Q484.1968,658.6699 484.3843,658.5605 Q484.5718,658.4512 484.7906,658.4512 Q485.1656,658.4512 485.4,658.7168 Q485.6343,658.9668 485.6343,659.5762 L485.6343,661.0293 Q485.6343,661.6387 485.4,661.9043 Q485.1656,662.1699 484.7906,662.1699 Q484.4468,662.1699 484.2437,661.9668 Q484.0406,661.7793 483.9312,661.2637 Q483.8843,660.9043 483.6968,660.7168 Q483.3687,660.3418 482.7593,660.123 Q482.15,659.9043 481.525,659.9043 Q480.7593,659.9043 480.1187,660.2324 Q479.4937,660.5605 478.9937,661.3105 Q478.5093,662.0605 478.5093,663.0918 L478.5093,664.1855 Q478.5093,665.4199 479.4,666.248 Q480.2906,667.0605 481.8843,667.0605 Q482.8218,667.0605 483.4781,666.8105 Q483.8687,666.6543 484.2906,666.2168 Q484.5562,665.9512 484.6968,665.873 Q484.8531,665.7949 485.0562,665.7949 Q485.3843,665.7949 485.6343,666.0605 Q485.9,666.3105 485.9,666.6543 Q485.9,666.998 485.5562,667.4043 Q485.0562,667.9824 484.2593,668.3105 Q483.1812,668.7637 481.8843,668.7637 Q480.3687,668.7637 479.1656,668.1387 Q478.1812,667.6387 477.4937,666.5762 Q476.8062,665.498 476.8062,664.2168 L476.8062,663.0605 Q476.8062,661.7324 477.4156,660.5918 Q478.0406,659.4355 479.1343,658.8262 Q480.2281,658.2012 481.4625,658.2012 Q482.1968,658.2012 482.8375,658.373 Q483.4937,658.5293 484.0406,658.8887 Z " fill="#000000"/><text fill="#000000" font-family="sans-serif" font-size="14" lengthAdjust="spacing" textLength="59.917" x="500.6694" y="668.8105">Deportivo</text><line style="stroke:#181818;stroke-width:0.5;" x1="443" x2="586.8613" y1="679.0137" y2="679.0137"/><rect fill="none" height="6" style="stroke:#C82930;stroke-width:1.0;" width="6" x="450" y="690.8242"/><text fill="#000000" font-family="sans-serif" font-size="14" lengthAdjust="spacing" textLength="117.5303" x="462" y="698.1211">double aceleracion</text><rect fill="none" height="6" style="stroke:#C82930;stroke-width:1.0;" width="6" x="450" y="709.4453"/><text fill="#000000" font-family="sans-serif" font-size="14" lengthAdjust="spacing" textLength="71.6064" x="462" y="716.7422">int potencia</text><rect fill="none" height="6" style="stroke:#C82930;stroke-width:1.0;" width="6" x="450" y="728.0664"/><text fill="#000000" font-family="sans-serif" font-size="14" lengthAdjust="spacing" textLength="119.8613" x="462" y="735.3633">boolean modoPista</text><line style="stroke:#181818;stroke-width:0.5;" x1="443" x2="586.8613" y1="742.877" y2="742.877"/></g><!--class Moto--><g id="elem_Moto"><rect codeLine="2" fill="#F1F1F1" height="141.1055" id="Moto" rx="2.5" ry="2.5" style="stroke:#181818;stroke-width:0.5;" width="204.9443" x="523.5" y="446.0137"/><ellipse cx="606.1602" cy="462.0137" fill="#A9DCDF" rx="11" ry="11" style="stroke:#181818;stroke-width:1.0;"/><path d="M608.3477,463.7793 L604.207,463.7793 L603.7852,464.8105 L604.207,464.8105 Q604.8164,464.8105 605.082,465.0449 Q605.3477,465.2793 605.3477,465.6699 Q605.3477,466.0449 605.082,466.2793 Q604.8164,466.5137 604.207,466.5137 L601.9102,466.5137 Q601.3008,466.5137 601.0508,466.2793 Q600.7852,466.0449 600.7852,465.6543 Q600.7852,465.2793 601.0664,465.0449 Q601.332,464.7949 601.957,464.8105 L604.6289,458.1543 L603.5195,458.1543 Q602.9102,458.1543 602.6445,457.9199 Q602.3789,457.6855 602.3789,457.2949 Q602.3789,456.9199 602.6445,456.6855 Q602.9102,456.4512 603.5195,456.4512 L607.1914,456.4512 L610.582,464.8105 Q611.1758,464.8105 611.3633,464.9512 Q611.7539,465.2168 611.7539,465.6699 Q611.7539,466.0449 611.4883,466.2793 Q611.2383,466.5137 610.6289,466.5137 L608.332,466.5137 Q607.7227,466.5137 607.457,466.2793 Q607.1914,466.0449 607.1914,465.6543 Q607.1914,465.2793 607.457,465.0449 Q607.7227,464.8105 608.332,464.8105 L608.7539,464.8105 L608.3477,463.7793 Z M607.6289,462.0762 L606.2695,458.7012 L604.8945,462.0762 L607.6289,462.0762 Z " fill="#000000"/><text fill="#000000" font-family="sans-serif" font-size="14" font-style="italic" lengthAdjust="spacing" textLength="31.124" x="626.6602" y="467.8105">Moto</text><line style="stroke:#181818;stroke-width:0.5;" x1="524.5" x2="727.4443" y1="478.0137" y2="478.0137"/><rect fill="none" height="6" style="stroke:#C82930;stroke-width:1.0;" width="6" x="531.5" y="489.8242"/><text fill="#000000" font-family="sans-serif" font-size="14" lengthAdjust="spacing" textLength="78.5996" x="543.5" y="497.1211">int cilindrada</text><rect fill="none" height="6" style="stroke:#C82930;stroke-width:1.0;" width="6" x="531.5" y="508.4453"/><text fill="#000000" font-family="sans-serif" font-size="14" lengthAdjust="spacing" textLength="49.0342" x="543.5" y="515.7422">int peso</text><rect fill="none" height="6" style="stroke:#C82930;stroke-width:1.0;" width="6" x="531.5" y="527.0664"/><text fill="#000000" font-family="sans-serif" font-size="14" lengthAdjust="spacing" textLength="127.6475" x="543.5" y="534.3633">double alturaAsiento</text><rect fill="none" height="6" style="stroke:#C82930;stroke-width:1.0;" width="6" x="531.5" y="545.6875"/><text fill="#000000" font-family="sans-serif" font-size="14" lengthAdjust="spacing" textLength="178.9443" x="543.5" y="552.9844">TipoTransmision transmision</text><line style="stroke:#181818;stroke-width:0.5;" x1="524.5" x2="727.4443" y1="560.498" y2="560.498"/><ellipse cx="534.5" cy="575.3086" fill="#84BE84" rx="3" ry="3" style="stroke:#038048;stroke-width:1.0;"/><text fill="#000000" font-family="sans-serif" font-size="14" lengthAdjust="spacing" textLength="147.0752" x="543.5" y="579.6055">double calcularRiesgo()</text></g><!--class Scooter--><g id="elem_Scooter"><rect codeLine="2" fill="#F1F1F1" height="66.6211" id="Scooter" rx="2.5" ry="2.5" style="stroke:#181818;stroke-width:0.5;" width="167.6475" x="623" y="665.5137"/><ellipse cx="678.4497" cy="681.5137" fill="#ADD1B2" rx="11" ry="11" style="stroke:#181818;stroke-width:1.0;"/><path d="M681.2153,677.3887 Q681.3716,677.1699 681.5591,677.0605 Q681.7466,676.9512 681.9653,676.9512 Q682.3403,676.9512 682.5747,677.2168 Q682.8091,677.4668 682.8091,678.0762 L682.8091,679.5293 Q682.8091,680.1387 682.5747,680.4043 Q682.3403,680.6699 681.9653,680.6699 Q681.6216,680.6699 681.4185,680.4668 Q681.2153,680.2793 681.106,679.7637 Q681.0591,679.4043 680.8716,679.2168 Q680.5435,678.8418 679.9341,678.623 Q679.3247,678.4043 678.6997,678.4043 Q677.9341,678.4043 677.2935,678.7324 Q676.6685,679.0605 676.1685,679.8105 Q675.6841,680.5605 675.6841,681.5918 L675.6841,682.6855 Q675.6841,683.9199 676.5747,684.748 Q677.4653,685.5605 679.0591,685.5605 Q679.9966,685.5605 680.6528,685.3105 Q681.0435,685.1543 681.4653,684.7168 Q681.731,684.4512 681.8716,684.373 Q682.0278,684.2949 682.231,684.2949 Q682.5591,684.2949 682.8091,684.5605 Q683.0747,684.8105 683.0747,685.1543 Q683.0747,685.498 682.731,685.9043 Q682.231,686.4824 681.4341,686.8105 Q680.356,687.2637 679.0591,687.2637 Q677.5435,687.2637 676.3403,686.6387 Q675.356,686.1387 674.6685,685.0762 Q673.981,683.998 673.981,682.7168 L673.981,681.5605 Q673.981,680.2324 674.5903,679.0918 Q675.2153,677.9355 676.3091,677.3262 Q677.4028,676.7012 678.6372,676.7012 Q679.3716,676.7012 680.0122,676.873 Q680.6685,677.0293 681.2153,677.3887 Z " fill="#000000"/><text fill="#000000" font-family="sans-serif" font-size="14" lengthAdjust="spacing" textLength="48.248" x="698.9497" y="687.3105">Scooter</text><line style="stroke:#181818;stroke-width:0.5;" x1="624" x2="789.6475" y1="697.5137" y2="697.5137"/><rect fill="none" height="6" style="stroke:#C82930;stroke-width:1.0;" width="6" x="631" y="709.3242"/><text fill="#000000" font-family="sans-serif" font-size="14" lengthAdjust="spacing" textLength="141.6475" x="643" y="716.6211">int espacioBajoAsiento</text><line style="stroke:#181818;stroke-width:0.5;" x1="624" x2="789.6475" y1="724.1348" y2="724.1348"/></g><!--class MotoDeportiva--><g id="elem_MotoDeportiva"><rect codeLine="2" fill="#F1F1F1" height="85.2422" id="MotoDeportiva" rx="2.5" ry="2.5" style="stroke:#181818;stroke-width:0.5;" width="152.8613" x="826.5" y="656.5137"/><ellipse cx="854.9191" cy="672.5137" fill="#ADD1B2" rx="11" ry="11" style="stroke:#181818;stroke-width:1.0;"/><path d="M857.6848,668.3887 Q857.841,668.1699 858.0285,668.0605 Q858.216,667.9512 858.4348,667.9512 Q858.8098,667.9512 859.0441,668.2168 Q859.2785,668.4668 859.2785,669.0762 L859.2785,670.5293 Q859.2785,671.1387 859.0441,671.4043 Q858.8098,671.6699 858.4348,671.6699 Q858.091,671.6699 857.8879,671.4668 Q857.6848,671.2793 857.5754,670.7637 Q857.5285,670.4043 857.341,670.2168 Q857.0129,669.8418 856.4035,669.623 Q855.7941,669.4043 855.1691,669.4043 Q854.4035,669.4043 853.7629,669.7324 Q853.1379,670.0605 852.6379,670.8105 Q852.1535,671.5605 852.1535,672.5918 L852.1535,673.6855 Q852.1535,674.9199 853.0441,675.748 Q853.9348,676.5605 855.5285,676.5605 Q856.466,676.5605 857.1223,676.3105 Q857.5129,676.1543 857.9348,675.7168 Q858.2004,675.4512 858.341,675.373 Q858.4973,675.2949 858.7004,675.2949 Q859.0285,675.2949 859.2785,675.5605 Q859.5441,675.8105 859.5441,676.1543 Q859.5441,676.498 859.2004,676.9043 Q858.7004,677.4824 857.9035,677.8105 Q856.8254,678.2637 855.5285,678.2637 Q854.0129,678.2637 852.8098,677.6387 Q851.8254,677.1387 851.1379,676.0762 Q850.4504,674.998 850.4504,673.7168 L850.4504,672.5605 Q850.4504,671.2324 851.0598,670.0918 Q851.6848,668.9355 852.7785,668.3262 Q853.8723,667.7012 855.1066,667.7012 Q855.841,667.7012 856.4816,667.873 Q857.1379,668.0293 857.6848,668.3887 Z " fill="#000000"/><text fill="#000000" font-family="sans-serif" font-size="14" lengthAdjust="spacing" textLength="91.041" x="871.9012" y="678.3105">MotoDeportiva</text><line style="stroke:#181818;stroke-width:0.5;" x1="827.5" x2="978.3613" y1="688.5137" y2="688.5137"/><rect fill="none" height="6" style="stroke:#C82930;stroke-width:1.0;" width="6" x="834.5" y="700.3242"/><text fill="#000000" font-family="sans-serif" font-size="14" lengthAdjust="spacing" textLength="90.2754" x="846.5" y="707.6211">double velMax</text><rect fill="none" height="6" style="stroke:#C82930;stroke-width:1.0;" width="6" x="834.5" y="718.9453"/><text fill="#000000" font-family="sans-serif" font-size="14" lengthAdjust="spacing" textLength="126.8613" x="846.5" y="726.2422">boolean quickShifter</text><line style="stroke:#181818;stroke-width:0.5;" x1="827.5" x2="978.3613" y1="733.7559" y2="733.7559"/></g><!--class Camion--><g id="elem_Camion"><rect codeLine="2" fill="#F1F1F1" height="141.1055" id="Camion" rx="2.5" ry="2.5" style="stroke:#181818;stroke-width:0.5;" width="184.7852" x="763.5" y="446.0137"/><ellipse cx="827.522" cy="462.0137" fill="#ADD1B2" rx="11" ry="11" style="stroke:#181818;stroke-width:1.0;"/><path d="M830.2876,457.8887 Q830.4438,457.6699 830.6313,457.5605 Q830.8188,457.4512 831.0376,457.4512 Q831.4126,457.4512 831.647,457.7168 Q831.8813,457.9668 831.8813,458.5762 L831.8813,460.0293 Q831.8813,460.6387 831.647,460.9043 Q831.4126,461.1699 831.0376,461.1699 Q830.6938,461.1699 830.4907,460.9668 Q830.2876,460.7793 830.1782,460.2637 Q830.1313,459.9043 829.9438,459.7168 Q829.6157,459.3418 829.0063,459.123 Q828.397,458.9043 827.772,458.9043 Q827.0063,458.9043 826.3657,459.2324 Q825.7407,459.5605 825.2407,460.3105 Q824.7563,461.0605 824.7563,462.0918 L824.7563,463.1855 Q824.7563,464.4199 825.647,465.248 Q826.5376,466.0605 828.1313,466.0605 Q829.0688,466.0605 829.7251,465.8105 Q830.1157,465.6543 830.5376,465.2168 Q830.8032,464.9512 830.9438,464.873 Q831.1001,464.7949 831.3032,464.7949 Q831.6313,464.7949 831.8813,465.0605 Q832.147,465.3105 832.147,465.6543 Q832.147,465.998 831.8032,466.4043 Q831.3032,466.9824 830.5063,467.3105 Q829.4282,467.7637 828.1313,467.7637 Q826.6157,467.7637 825.4126,467.1387 Q824.4282,466.6387 823.7407,465.5762 Q823.0532,464.498 823.0532,463.2168 L823.0532,462.0605 Q823.0532,460.7324 823.6626,459.5918 Q824.2876,458.4355 825.3813,457.8262 Q826.4751,457.2012 827.7095,457.2012 Q828.4438,457.2012 829.0845,457.373 Q829.7407,457.5293 830.2876,457.8887 Z " fill="#000000"/><text fill="#000000" font-family="sans-serif" font-size="14" lengthAdjust="spacing" textLength="48.2412" x="848.022" y="467.8105">Camion</text><line style="stroke:#181818;stroke-width:0.5;" x1="764.5" x2="947.2852" y1="478.0137" y2="478.0137"/><rect fill="none" height="6" style="stroke:#C82930;stroke-width:1.0;" width="6" x="771.5" y="489.8242"/><text fill="#000000" font-family="sans-serif" font-size="14" lengthAdjust="spacing" textLength="147.8887" x="783.5" y="497.1211">double capacidadCarga</text><rect fill="none" height="6" style="stroke:#C82930;stroke-width:1.0;" width="6" x="771.5" y="508.4453"/><text fill="#000000" font-family="sans-serif" font-size="14" lengthAdjust="spacing" textLength="73.1445" x="783.5" y="515.7422">int numEjes</text><rect fill="none" height="6" style="stroke:#C82930;stroke-width:1.0;" width="6" x="771.5" y="527.0664"/><text fill="#000000" font-family="sans-serif" font-size="14" lengthAdjust="spacing" textLength="158.7852" x="783.5" y="534.3633">double longitudRemolque</text><rect fill="none" height="6" style="stroke:#C82930;stroke-width:1.0;" width="6" x="771.5" y="545.6875"/><text fill="#000000" font-family="sans-serif" font-size="14" lengthAdjust="spacing" textLength="71.6064" x="783.5" y="552.9844">int potencia</text><line style="stroke:#181818;stroke-width:0.5;" x1="764.5" x2="947.2852" y1="560.498" y2="560.498"/><ellipse cx="774.5" cy="575.3086" fill="#84BE84" rx="3" ry="3" style="stroke:#038048;stroke-width:1.0;"/><text fill="#000000" font-family="sans-serif" font-size="14" lengthAdjust="spacing" textLength="147.0752" x="783.5" y="579.6055">double calcularRiesgo()</text></g><!--class Valorable--><g id="elem_Valorable"><rect codeLine="2" fill="#F1F1F1" height="66.6211" id="Valorable" rx="2.5" ry="2.5" style="stroke:#181818;stroke-width:0.5;" width="211.2061" x="744.5" y="226.0137"/><ellipse cx="816.2773" cy="242.0137" fill="#B4A7E5" rx="11" ry="11" style="stroke:#181818;stroke-width:1.0;"/><path d="M817.2305,238.6543 L817.2305,245.3105 L818.9492,245.3105 Q819.5586,245.3105 819.8242,245.5449 Q820.0898,245.7793 820.0898,246.1699 Q820.0898,246.5449 819.8242,246.7793 Q819.5586,247.0137 818.9492,247.0137 L813.8086,247.0137 Q813.1992,247.0137 812.9336,246.7793 Q812.668,246.5449 812.668,246.1543 Q812.668,245.7793 812.9336,245.5449 Q813.1992,245.3105 813.8086,245.3105 L815.5273,245.3105 L815.5273,238.6543 L813.8086,238.6543 Q813.1992,238.6543 812.9336,238.4199 Q812.668,238.1855 812.668,237.7949 Q812.668,237.4199 812.9336,237.1855 Q813.1992,236.9512 813.8086,236.9512 L818.9492,236.9512 Q819.5586,236.9512 819.8242,237.1855 Q820.0898,237.4199 820.0898,237.7949 Q820.0898,238.1855 819.8242,238.4199 Q819.5586,238.6543 818.9492,238.6543 L817.2305,238.6543 Z " fill="#000000"/><text fill="#000000" font-family="sans-serif" font-size="14" font-style="italic" lengthAdjust="spacing" textLength="59.1514" x="836.7773" y="247.8105">Valorable</text><line style="stroke:#181818;stroke-width:0.5;" x1="745.5" x2="954.7061" y1="258.0137" y2="258.0137"/><line style="stroke:#181818;stroke-width:0.5;" x1="745.5" x2="954.7061" y1="266.0137" y2="266.0137"/><ellipse cx="755.5" cy="280.8242" fill="#84BE84" rx="3" ry="3" style="stroke:#038048;stroke-width:1.0;"/><text fill="#000000" font-family="sans-serif" font-size="14" lengthAdjust="spacing" textLength="185.2061" x="764.5" y="285.1211">double calcularDepreciacion()</text></g><!--reverse link Vehiculo to Coche--><g id="link_Vehiculo_Coche"><path codeLine="9" d="M469.622,388.9007 C446.142,412.7507 434.74,424.3437 413.48,445.9437 " fill="none" id="Vehiculo-backto-Coche" style="stroke:#181818;stroke-width:1.0;"/><polygon fill="none" points="482.25,376.0737,465.3463,384.6914,473.8976,393.11,482.25,376.0737" style="stroke:#181818;stroke-width:1.0;"/></g><!--reverse link Coche to Sedan--><g id="link_Coche_Sedan"><path codeLine="6" d="M257.5143,599.3396 C232.4543,622.7796 218.43,635.8837 196.42,656.4737 " fill="none" id="Coche-backto-Sedan" style="stroke:#181818;stroke-width:1.0;"/><polygon fill="none" points="270.66,587.0437,253.4156,594.9577,261.6129,603.7215,270.66,587.0437" style="stroke:#181818;stroke-width:1.0;"/></g><!--reverse link Coche to SUV--><g id="link_Coche_SUV"><path codeLine="6" d="M341.6017,605.0301 C340.6917,628.4701 340.41,635.8837 339.61,656.4737 " fill="none" id="Coche-backto-SUV" style="stroke:#181818;stroke-width:1.0;"/><polygon fill="none" points="342.3,587.0437,335.6062,604.7974,347.5972,605.2629,342.3,587.0437" style="stroke:#181818;stroke-width:1.0;"/></g><!--reverse link Coche to Deportivo--><g id="link_Coche_Deportivo"><path codeLine="7" d="M422.8229,600.1453 C441.5329,620.0053 449.23,628.1837 466.71,646.7337 " fill="none" id="Coche-backto-Deportivo" style="stroke:#181818;stroke-width:1.0;"/><polygon fill="none" points="410.48,587.0437,418.4557,604.2596,427.1901,596.031,410.48,587.0437" style="stroke:#181818;stroke-width:1.0;"/></g><!--reverse link Vehiculo to Moto--><g id="link_Vehiculo_Moto"><path codeLine="9" d="M612.8826,404.0204 C615.2926,424.5104 615.61,427.1937 617.79,445.6937 " fill="none" id="Vehiculo-backto-Moto" style="stroke:#181818;stroke-width:1.0;"/><polygon fill="none" points="610.78,386.1437,606.9237,404.7213,618.8416,403.3196,610.78,386.1437" style="stroke:#181818;stroke-width:1.0;"/></g><!--reverse link Moto to Scooter--><g id="link_Moto_Scooter"><path codeLine="5" d="M664.569,603.4662 C676.599,630.2762 682.42,643.2537 692.21,665.0437 " fill="none" id="Moto-backto-Scooter" style="stroke:#181818;stroke-width:1.0;"/><polygon fill="none" points="657.2,587.0437,659.0948,605.9225,670.0431,601.0098,657.2,587.0437" style="stroke:#181818;stroke-width:1.0;"/></g><!--reverse link Moto to MotoDeportiva--><g id="link_Moto_MotoDeportiva"><path codeLine="6" d="M743.8322,594.2985 C780.7822,618.3685 806.3,635.0037 839,656.3137 " fill="none" id="Moto-backto-MotoDeportiva" style="stroke:#181818;stroke-width:1.0;"/><polygon fill="none" points="728.75,584.4737,740.5572,599.3259,747.1071,589.2711,728.75,584.4737" style="stroke:#181818;stroke-width:1.0;"/></g><!--reverse link Vehiculo to Camion--><g id="link_Vehiculo_Camion"><path codeLine="9" d="M722.5106,384.5978 C748.0606,409.6578 761.62,422.9537 784.85,445.7337 " fill="none" id="Vehiculo-backto-Camion" style="stroke:#181818;stroke-width:1.0;"/><polygon fill="none" points="709.66,371.9937,718.3092,388.8813,726.7119,380.3143,709.66,371.9937" style="stroke:#181818;stroke-width:1.0;"/></g><!--SRC=[RSwn2W8n30RWtQUeavilSIuEWd1uUso35qZxbxJr-JqH4O93Cdpy9FyXd4lK8HajTAHjwpP9w66KgOLA5eMKssulxs3YiF0gSIYETMJzyPMjeP3JXHH6TsNd4-BgRUP4nTjjSNBY2klozFylw9xc27IsFy7l4LzteYpuT7W1]--></g></svg>